<?xml version="1.0" encoding="utf-8"?>
<!-- Generator: Adobe Illustrator 19.0.0, SVG Export Plug-In . SVG Version: 6.00 Build 0)  -->
<svg version="1.1" id="layer" xmlns="http://www.w3.org/2000/svg" xmlns:xlink="http://www.w3.org/1999/xlink" x="0px" y="0px"
	 viewBox="-153 -46 652 652" style="enable-background:new -153 -46 652 652;" xml:space="preserve">
<style type="text/css">
	.st0{fill:#1B4EA9;}
</style>
<path class="st0" d="M466.8,315.1l-6.9,4.4l2.6-10.2h-5.3c0,0.7-0.2,1.7-0.5,3l-3.1,12.3c-0.3,1.3-0.7,2.3-1,3h5.6
	c0-0.7,0.1-1.7,0.5-3l0.6-2.4l2.4-1.5l2.1,7h5.9c-0.5-0.7-0.9-1.4-1-2l-2.4-7.9c3.6-2.2,5.5-3.4,6-3.6h-4.4
	C467.5,314.5,467.2,314.8,466.8,315.1 M449.4,318.5h-6.1c-0.6,0-0.8-0.3-0.7-0.8l0.2-0.6c0.1-0.5,0.5-0.8,1.1-0.8h6.3
	c1.5,0,2.6,0.1,3.2,0.3l0.2-2.3h-11.9c-2,0-3.4,1.2-4,3.6l-0.4,1.6c-0.6,2.4,0.1,3.7,2.2,3.7h6.3c0.3,0,0.6,0.1,0.7,0.2
	c0.1,0.2,0.2,0.4,0.1,0.6l-0.2,0.7c-0.1,0.3-0.2,0.5-0.4,0.6c-0.2,0.2-0.5,0.2-0.9,0.2H439c-1.5,0-2.6-0.1-3.2-0.3l-0.2,2.3h11.5
	c2.3,0,3.7-1,4.2-3l0.8-3.2C452.6,319.5,451.7,318.5,449.4,318.5 M431.4,312.9h4.8l0.8-3.2h-4.8L431.4,312.9z M430.2,317.3l-1.9,7.4
	c-0.3,1.3-0.7,2.3-1,3h5.6c0-0.7,0.1-1.7,0.5-3l2.6-10.4h-5.3C430.7,315,430.6,316,430.2,317.3 M422.3,311.7c0.3,0,0.6,0.1,0.7,0.3
	c0.1,0.2,0.1,0.5,0,1l-0.8,3.1c-0.1,0.5-0.2,0.8-0.4,1c-0.2,0.2-0.5,0.3-0.8,0.3h-6.3l1.4-5.6H422.3z M418,319.6l1.1,8.1h6.1
	c-0.4-0.5-0.7-1.1-0.8-2l-0.9-6.1c1.1-0.2,1.9-0.5,2.4-1c0.6-0.5,0.9-1.2,1.1-2.1l0.9-3.7c0.3-1.2,0.2-2.1-0.3-2.7
	c-0.5-0.6-1.3-0.9-2.5-0.9h-14.5c0.1,0.7,0,1.5-0.3,2.5l-3.4,13.4c-0.2,1-0.5,1.8-0.9,2.5h6.1c-0.1-0.7,0-1.5,0.3-2.5l1.4-5.6H418z
	 M383.4,325.4c-0.1-0.1-0.1-0.4,0-0.8l1.8-7.3c0.1-0.4,0.2-0.6,0.4-0.8c0.2-0.1,0.4-0.2,0.7-0.2h4.4c0.3,0,0.5,0.1,0.6,0.2
	c0.1,0.1,0.1,0.4,0,0.8l-1.8,7.3c-0.1,0.4-0.2,0.6-0.4,0.8c-0.2,0.1-0.4,0.2-0.7,0.2h-4.4C383.7,325.6,383.5,325.5,383.4,325.4
	 M394.1,327.7c0-0.7,0.1-1.7,0.5-3l3.8-15.3h-5.3c0,0.7-0.2,1.7-0.5,3l-0.8,3.2h-0.1c-0.1-0.6-0.2-0.9-0.4-1.1
	c-0.2-0.2-0.4-0.3-0.9-0.3h-6c-1.1,0-2.1,0.3-2.8,0.9c-0.7,0.6-1.2,1.5-1.5,2.7l-1.6,6.3c-0.3,1.2-0.3,2.2,0.2,2.7
	c0.4,0.6,1.2,0.9,2.3,0.9h6.3c0.7,0,1.3-0.4,1.8-1.3h0.1l0,1.3H394.1z M362,317.3l-1.9,7.4c-0.3,1.3-0.7,2.3-1,3h5.6
	c0-0.7,0.1-1.7,0.5-3l1.8-7.3c0.1-0.4,0.2-0.6,0.4-0.8c0.2-0.1,0.4-0.2,0.7-0.2h4.2c0.3,0,0.5,0.1,0.6,0.2c0.1,0.1,0.1,0.4,0,0.8
	l-1.8,7.3c-0.3,1.3-0.7,2.3-1,3h5.6c0-0.7,0.1-1.7,0.5-3l1.7-6.8c0.3-1.2,0.3-2.2-0.2-2.7c-0.4-0.6-1.2-0.9-2.3-0.9h-6.1
	c-0.4,0-0.8,0.1-1,0.3c-0.3,0.2-0.6,0.6-0.9,1.1h-0.1l0.2-1.4h-5C362.5,315,362.4,316,362,317.3 M352.9,324.6
	c-0.1,0.4-0.2,0.6-0.4,0.8c-0.2,0.1-0.4,0.2-0.7,0.2h-4.4c-0.3,0-0.5-0.1-0.6-0.2c-0.1-0.1-0.1-0.4,0-0.8l0.8-3.2
	c0.1-0.4,0.2-0.6,0.4-0.8c0.2-0.1,0.4-0.2,0.7-0.2h5.3L352.9,324.6z M359.5,315.1c-0.4-0.6-1.2-0.9-2.3-0.9h-11.9l-0.9,2.3
	c0.8-0.2,1.7-0.3,2.5-0.3h7.5c0.5,0,0.7,0.2,0.5,0.6l-0.2,0.9c-0.1,0.4-0.4,0.6-0.9,0.6h-7c-1.2,0-2.2,0.3-2.9,1
	c-0.7,0.7-1.2,1.9-1.7,3.7c-0.3,1.2-0.5,2.2-0.4,2.9c0.1,0.7,0.4,1.2,0.7,1.4c0.4,0.3,1,0.4,1.8,0.4h6.2c0.5,0,0.9-0.1,1.3-0.3
	c0.3-0.2,0.7-0.6,1-1.1h0.1l-0.1,1.4h4.6c0-0.7,0.1-1.7,0.5-3l1.7-6.8C359.9,316.6,359.9,315.7,359.5,315.1 M326.5,331.9
	c0.7-0.6,1.3-1.6,1.6-2.9l3.7-14.8h-5.3c0.1,0.6,0,1.1-0.1,1.7l-2.2,8.9c-0.1,0.5-0.5,0.7-1.1,0.7h-4.4c-0.2,0-0.4-0.1-0.5-0.2
	c-0.1-0.1-0.1-0.3-0.1-0.5l2.6-10.6h-5.3c0.1,0.6,0,1.1-0.1,1.7l-2.2,8.6c-0.2,1-0.1,1.7,0.3,2.3c0.4,0.6,1.2,0.8,2.2,0.8h6.1
	c0.5,0,0.8-0.1,1.1-0.3c0.3-0.2,0.6-0.6,0.9-1.2l0,0.1l-0.7,3c-0.1,0.5-0.3,0.9-0.5,1.1c-0.2,0.2-0.6,0.3-1,0.3H315
	c-1.4,0-2.4-0.1-3-0.3l-0.3,2.4h12.1C324.9,332.8,325.8,332.5,326.5,331.9 M308.2,314.2l0.9-3.4l-5.2,0.7l-0.7,2.8h-2.6l-0.5,2h2.6
	l-1.9,7.7c-0.3,1.3-0.3,2.2,0.1,2.9c0.4,0.6,1.1,0.9,2.2,0.9h7.3l1.1-2.4c-0.4,0.2-1.4,0.3-2.9,0.3h-2c-0.5,0-0.8-0.1-0.9-0.3
	s-0.1-0.6,0-1.1l2-8h4.8l0.5-2H308.2z M294.3,312.9h4.8l0.8-3.2h-4.8L294.3,312.9z M293.2,317.3l-1.9,7.4c-0.3,1.3-0.7,2.3-1,3h5.6
	c0-0.7,0.1-1.7,0.5-3l2.6-10.4h-5.3C293.6,315,293.5,316,293.2,317.3 M287.9,314.2c-0.8,0-1.4,0.1-1.8,0.3c-0.4,0.2-0.7,0.6-0.9,1.1
	h-0.1l0.2-1.5h-4.8c0,0.7-0.1,1.7-0.5,3l-1.9,7.4c-0.3,1.3-0.7,2.3-1,3h5.6c0-0.7,0.1-1.7,0.5-3l1.8-7c0.1-0.5,0.5-0.7,1-0.7h1.9
	c1.3,0,2.4,0.1,3.3,0.3l0.7-3H287.9z M275.5,324.7l2.6-10.4h-5.3c0,0.7-0.1,1.7-0.5,3l-1.8,7.3c-0.1,0.4-0.2,0.6-0.4,0.8
	c-0.2,0.1-0.4,0.2-0.7,0.2h-4.2c-0.3,0-0.5-0.1-0.6-0.2c-0.1-0.1-0.1-0.4,0-0.8l2.6-10.4h-5.3c0,0.7-0.1,1.7-0.5,3l-1.7,6.8
	c-0.3,1.2-0.3,2.2,0.2,2.7c0.4,0.6,1.2,0.9,2.3,0.9h6.1c0.4,0,0.8-0.1,1-0.3c0.3-0.2,0.6-0.6,0.9-1.1h0.1l-0.2,1.4h5
	C275,327,275.2,326,275.5,324.7 M259.4,316.5l0.2-2.3h-10.4c-1.1,0-2.1,0.3-2.8,0.9c-0.7,0.6-1.2,1.5-1.5,2.7l-1.6,6.3
	c-0.3,1.2-0.3,2.2,0.2,2.7c0.4,0.6,1.2,0.9,2.3,0.9h10.4l1-2.3c-0.6,0.1-1.2,0.2-1.6,0.2h-6.7c-0.3,0-0.5-0.1-0.6-0.2
	c-0.1-0.1-0.1-0.4,0-0.8l1.8-7.3c0.1-0.4,0.2-0.6,0.4-0.8c0.2-0.1,0.4-0.2,0.7-0.2h6.7C258.4,316.4,258.9,316.4,259.4,316.5
	 M243,317.9c0.3-1.2,0.3-2.2-0.2-2.7c-0.4-0.6-1.2-0.9-2.3-0.9h-9.4c-1.1,0-2.1,0.3-2.8,0.9c-0.7,0.6-1.2,1.5-1.5,2.7l-1.6,6.3
	c-0.3,1.2-0.3,2.2,0.2,2.7c0.4,0.6,1.2,0.9,2.3,0.9h12.3l1-2.3c-0.6,0.1-1.2,0.2-1.6,0.2h-8.7c-0.3,0-0.5-0.1-0.6-0.2
	c-0.1-0.1-0.1-0.4,0-0.8l0.6-2.4h11.1L243,317.9z M232,317.3c0.1-0.4,0.2-0.6,0.4-0.8c0.2-0.1,0.4-0.2,0.7-0.2h4.4
	c0.3,0,0.5,0.1,0.6,0.2c0.1,0.1,0.1,0.4,0,0.8l-0.7,2.8h-6.1L232,317.3z M221.6,315.7h-6.9c-0.4,0-0.7-0.1-0.8-0.2
	c-0.1-0.2-0.1-0.4,0-0.9l0.5-1.8c0.1-0.4,0.2-0.7,0.4-0.9c0.2-0.2,0.5-0.2,0.9-0.2h7.6c1.2,0,2.2,0.1,2.7,0.4l0.3-2.8h-12.5
	c-2.4,0-4,1.2-4.6,3.7l-1,4c-0.6,2.5,0.3,3.7,2.7,3.7h6.9c0.4,0,0.7,0.1,0.8,0.2c0.1,0.2,0.1,0.4,0,0.9l-0.6,2.4
	c-0.1,0.4-0.2,0.7-0.4,0.9c-0.2,0.2-0.5,0.2-0.9,0.2H209c-1.2,0-2.1-0.1-2.7-0.4l-0.2,2.8h12.5c2.4,0,4-1.2,4.6-3.7l1.1-4.6
	C224.9,316.9,224,315.7,221.6,315.7 M191.5,327.6l0.9-3.6H187l-0.9,3.8h2.1l-1.9,2.5h2.1L191.5,327.6z M180.4,331.9
	c0.7-0.6,1.3-1.6,1.6-2.9l3.7-14.8h-5.3c0.1,0.6,0,1.1-0.1,1.7l-2.2,8.9c-0.1,0.5-0.5,0.7-1.1,0.7h-4.4c-0.2,0-0.4-0.1-0.5-0.2
	c-0.1-0.1-0.1-0.3-0.1-0.5l2.6-10.6h-5.3c0.1,0.6,0,1.1-0.1,1.7l-2.2,8.6c-0.2,1-0.1,1.7,0.3,2.3c0.4,0.6,1.2,0.8,2.2,0.8h6.1
	c0.5,0,0.8-0.1,1.1-0.3c0.3-0.2,0.6-0.6,0.9-1.2l0,0.1l-0.7,3c-0.1,0.5-0.3,0.9-0.5,1.1c-0.2,0.2-0.6,0.3-1,0.3h-6.4
	c-1.4,0-2.4-0.1-3-0.3l-0.3,2.4h12.1C178.8,332.8,179.7,332.5,180.4,331.9 M162.1,314.2l0.9-3.4l-5.2,0.7l-0.7,2.8h-2.6l-0.5,2h2.6
	l-1.9,7.7c-0.3,1.3-0.3,2.2,0.1,2.9c0.4,0.6,1.1,0.9,2.2,0.9h7.3l1.1-2.4c-0.4,0.2-1.4,0.3-2.9,0.3h-2c-0.5,0-0.8-0.1-0.9-0.3
	s-0.1-0.6,0-1.1l2-8h4.9l0.5-2H162.1z M152.7,317.9c0.3-1.2,0.3-2.2-0.2-2.7c-0.4-0.6-1.2-0.9-2.3-0.9h-9.4c-1.1,0-2.1,0.3-2.8,0.9
	c-0.7,0.6-1.2,1.5-1.5,2.7l-1.6,6.3c-0.3,1.2-0.3,2.2,0.2,2.7c0.4,0.6,1.2,0.9,2.3,0.9h12.3l1-2.3c-0.6,0.1-1.2,0.2-1.6,0.2h-8.7
	c-0.3,0-0.5-0.1-0.6-0.2c-0.1-0.1-0.1-0.4,0-0.8l0.6-2.4h11.1L152.7,317.9z M141.6,317.3c0.1-0.4,0.2-0.6,0.4-0.8
	c0.2-0.1,0.4-0.2,0.7-0.2h4.4c0.3,0,0.5,0.1,0.6,0.2c0.1,0.1,0.1,0.4,0,0.8l-0.7,2.8H141L141.6,317.3z M126.3,316.3l-2.1,8.4
	c-0.3,1.3-0.7,2.3-1,3h5.6c0-0.7,0.1-1.7,0.5-3l2.1-8.4h4.8l0.5-2h-4.8l0.5-1.8c0.1-0.4,0.2-0.6,0.4-0.8c0.2-0.1,0.4-0.2,0.7-0.2
	h3.5c0.5,0,1,0.1,1.6,0.2l0.2-2.3h-7.2c-1.2,0-2.1,0.3-2.8,0.9c-0.7,0.6-1.2,1.5-1.5,2.7l-0.3,1.3h-2.7l-0.5,2H126.3z M115.7,324.6
	c-0.1,0.4-0.2,0.6-0.4,0.8c-0.2,0.1-0.4,0.2-0.7,0.2h-4.4c-0.3,0-0.5-0.1-0.6-0.2c-0.1-0.1-0.1-0.4,0-0.8l0.8-3.2
	c0.1-0.4,0.2-0.6,0.4-0.8c0.2-0.1,0.4-0.2,0.7-0.2h5.3L115.7,324.6z M122.2,315.1c-0.4-0.6-1.2-0.9-2.3-0.9h-11.9l-0.9,2.3
	c0.8-0.2,1.7-0.3,2.5-0.3h7.5c0.5,0,0.7,0.2,0.5,0.6l-0.2,0.9c-0.1,0.4-0.4,0.6-0.9,0.6h-7c-1.2,0-2.2,0.3-2.9,1
	c-0.7,0.7-1.2,1.9-1.7,3.7c-0.3,1.2-0.5,2.2-0.4,2.9c0.1,0.7,0.4,1.2,0.7,1.4c0.4,0.3,1,0.4,1.8,0.4h6.2c0.5,0,0.9-0.1,1.3-0.3
	c0.3-0.2,0.7-0.6,1-1.1h0.1l-0.1,1.4h4.6c0-0.7,0.1-1.7,0.5-3l1.7-6.8C122.7,316.6,122.6,315.7,122.2,315.1 M101,315.7h-6.9
	c-0.4,0-0.7-0.1-0.8-0.2c-0.1-0.2-0.1-0.4,0-0.9l0.5-1.8c0.1-0.4,0.2-0.7,0.4-0.9c0.2-0.2,0.5-0.2,0.9-0.2h7.6
	c1.2,0,2.2,0.1,2.7,0.4l0.3-2.8H93.1c-2.4,0-4,1.2-4.6,3.7l-1,4c-0.6,2.5,0.3,3.7,2.7,3.7h6.9c0.4,0,0.7,0.1,0.8,0.2
	c0.1,0.2,0.1,0.4,0,0.9l-0.6,2.4c-0.1,0.4-0.2,0.7-0.4,0.9c-0.2,0.2-0.5,0.2-0.9,0.2h-7.5c-1.2,0-2.1-0.1-2.7-0.4l-0.2,2.8h12.5
	c2.4,0,4-1.2,4.6-3.7l1.1-4.6C104.3,316.9,103.4,315.7,101,315.7 M58.6,317.3l-1.9,7.4c-0.3,1.3-0.7,2.3-1,3h5.6
	c0-0.7,0.1-1.7,0.5-3l1.8-7.3c0.1-0.4,0.2-0.6,0.4-0.8c0.2-0.1,0.4-0.2,0.7-0.2H69c0.3,0,0.5,0.1,0.6,0.2c0.1,0.1,0.1,0.4,0,0.8
	l-1.8,7.3c-0.3,1.3-0.7,2.3-1,3h5.6c0-0.7,0.1-1.7,0.5-3l1.7-6.8c0.3-1.2,0.3-2.2-0.2-2.7c-0.4-0.6-1.2-0.9-2.3-0.9h-6.1
	c-0.4,0-0.8,0.1-1,0.3c-0.3,0.2-0.6,0.6-0.9,1.1h-0.1l0.2-1.4h-5C59.1,315,59,316,58.6,317.3 M51.7,312.9h4.8l0.8-3.2h-4.8
	L51.7,312.9z M50.6,317.3l-1.9,7.4c-0.3,1.3-0.7,2.3-1,3h5.6c0-0.7,0.1-1.7,0.5-3l2.6-10.4H51C51,315,50.9,316,50.6,317.3
	 M33.9,318.5h-6.1c-0.6,0-0.8-0.3-0.7-0.8l0.2-0.6c0.1-0.5,0.5-0.8,1.1-0.8h6.3c1.5,0,2.6,0.1,3.2,0.3l0.2-2.3H26.1
	c-2,0-3.4,1.2-4,3.6l-0.4,1.6c-0.6,2.4,0.1,3.7,2.2,3.7h6.3c0.3,0,0.6,0.1,0.7,0.2c0.1,0.2,0.2,0.4,0.1,0.6l-0.2,0.7
	c-0.1,0.3-0.2,0.5-0.4,0.6c-0.2,0.2-0.5,0.2-0.9,0.2h-6.1c-1.5,0-2.6-0.1-3.2-0.3l-0.2,2.3h11.5c2.3,0,3.7-1,4.2-3l0.8-3.2
	C37.1,319.5,36.2,318.5,33.9,318.5 M16,314.2l0.9-3.4l-5.2,0.7l-0.7,2.8H8.4l-0.5,2h2.6l-1.9,7.7c-0.3,1.3-0.3,2.2,0.1,2.9
	c0.4,0.6,1.1,0.9,2.2,0.9h7.3l1.1-2.4c-0.4,0.2-1.4,0.3-2.9,0.3h-2c-0.5,0-0.8-0.1-0.9-0.3c-0.1-0.2-0.1-0.6,0-1.1l2-8h4.8l0.5-2H16
	z M3,318.5h-6.1c-0.6,0-0.8-0.3-0.7-0.8l0.2-0.6c0.1-0.5,0.5-0.8,1.1-0.8h6.3c1.5,0,2.6,0.1,3.2,0.3l0.2-2.3H-4.7
	c-2,0-3.4,1.2-4,3.6l-0.4,1.6c-0.6,2.4,0.1,3.7,2.2,3.7h6.3c0.3,0,0.6,0.1,0.7,0.2c0.1,0.2,0.2,0.4,0.1,0.6L0,324.8
	c-0.1,0.3-0.2,0.5-0.4,0.6c-0.2,0.2-0.5,0.2-0.9,0.2h-6.1c-1.5,0-2.6-0.1-3.2-0.3l-0.2,2.3H0.7c2.3,0,3.7-1,4.2-3l0.8-3.2
	C6.2,319.5,5.3,318.5,3,318.5 M-14.9,312.9h4.8l0.8-3.2h-4.8L-14.9,312.9z M-16.1,317.3l-1.9,7.4c-0.3,1.3-0.7,2.3-1,3h5.6
	c0-0.7,0.1-1.7,0.5-3l2.6-10.4h-5.3C-15.6,315-15.8,316-16.1,317.3 M-22.9,309.4c0,0.7-0.2,1.7-0.5,3l-3.1,12.3
	c-0.3,1.3-0.7,2.3-1,3h5.6c0-0.7,0.1-1.7,0.5-3l3.8-15.3H-22.9z M-34.2,324.6c-0.1,0.4-0.2,0.6-0.4,0.8c-0.2,0.1-0.4,0.2-0.7,0.2
	h-4.4c-0.3,0-0.5-0.1-0.6-0.2c-0.1-0.1-0.1-0.4,0-0.8l0.8-3.2c0.1-0.4,0.2-0.6,0.4-0.8c0.2-0.1,0.4-0.2,0.7-0.2h5.3L-34.2,324.6z
	 M-27.6,315.1c-0.4-0.6-1.2-0.9-2.3-0.9h-11.9l-0.9,2.3c0.8-0.2,1.7-0.3,2.5-0.3h7.5c0.5,0,0.7,0.2,0.5,0.6l-0.2,0.9
	c-0.1,0.4-0.4,0.6-0.9,0.6h-7c-1.2,0-2.2,0.3-2.9,1c-0.7,0.7-1.2,1.9-1.7,3.7c-0.3,1.2-0.5,2.2-0.4,2.9c0.1,0.7,0.4,1.2,0.7,1.4
	c0.4,0.3,1,0.4,1.8,0.4h6.2c0.5,0,0.9-0.1,1.3-0.3c0.3-0.2,0.7-0.6,1-1.1h0.1l-0.1,1.4h4.6c0-0.7,0.1-1.7,0.5-3l1.7-6.8
	C-27.2,316.6-27.2,315.7-27.6,315.1 M-50,312.9h4.8l0.8-3.2h-4.8L-50,312.9z M-51.2,317.3l-1.9,7.4c-0.3,1.3-0.7,2.3-1,3h5.6
	c0-0.7,0.1-1.7,0.5-3l2.6-10.4h-5.3C-50.7,315-50.9,316-51.2,317.3 M-53.6,316.5l0.2-2.3h-10.4c-1.1,0-2.1,0.3-2.8,0.9
	c-0.7,0.6-1.2,1.5-1.5,2.7l-1.6,6.3c-0.3,1.2-0.3,2.2,0.2,2.7c0.4,0.6,1.2,0.9,2.3,0.9h10.4l1-2.3c-0.6,0.1-1.2,0.2-1.6,0.2h-6.7
	c-0.3,0-0.5-0.1-0.6-0.2c-0.1-0.1-0.1-0.4,0-0.8l1.8-7.3c0.1-0.4,0.2-0.6,0.4-0.8c0.2-0.1,0.4-0.2,0.7-0.2h6.7
	C-54.7,316.4-54.1,316.4-53.6,316.5 M-70,317.9c0.3-1.2,0.3-2.2-0.2-2.7c-0.4-0.6-1.2-0.9-2.3-0.9h-9.4c-1.1,0-2.1,0.3-2.8,0.9
	c-0.7,0.6-1.2,1.5-1.5,2.7l-1.6,6.3c-0.3,1.2-0.3,2.2,0.2,2.7c0.4,0.6,1.2,0.9,2.3,0.9h12.3l1-2.3c-0.6,0.1-1.2,0.2-1.6,0.2h-8.7
	c-0.3,0-0.5-0.1-0.6-0.2c-0.1-0.1-0.1-0.4,0-0.8l0.6-2.4h11.1L-70,317.9z M-81,317.3c0.1-0.4,0.2-0.6,0.4-0.8
	c0.2-0.1,0.4-0.2,0.7-0.2h4.4c0.3,0,0.5,0.1,0.6,0.2c0.1,0.1,0.1,0.4,0,0.8l-0.7,2.8h-6.1L-81,317.3z M-92.9,316.6
	c0.1,0.1,0.1,0.4,0,0.8l-1.8,7.3c-0.1,0.4-0.2,0.6-0.4,0.8c-0.2,0.1-0.4,0.2-0.7,0.2h-4.4c-0.3,0-0.5-0.1-0.6-0.2
	c-0.1-0.1-0.1-0.4,0-0.8l1.8-7.3c0.1-0.4,0.2-0.6,0.4-0.8c0.2-0.1,0.4-0.2,0.7-0.2h4.4C-93.2,316.4-93,316.4-92.9,316.6
	 M-103.6,314.2c0,0.7-0.1,1.7-0.5,3l-3.9,15.6h5.3c0-0.7,0.1-1.7,0.5-3l0.9-3.4h0.1c0.1,0.6,0.2,0.9,0.4,1.1
	c0.2,0.2,0.4,0.3,0.9,0.3h6c1.1,0,2.1-0.3,2.8-0.9c0.7-0.6,1.2-1.5,1.5-2.7l1.6-6.3c0.3-1.2,0.3-2.2-0.2-2.7
	c-0.4-0.6-1.2-0.9-2.3-0.9h-6.3c-0.7,0-1.3,0.4-1.8,1.3h-0.1l0-1.3H-103.6z M-109.5,315.7h-6.9c-0.4,0-0.7-0.1-0.8-0.2
	c-0.1-0.2-0.1-0.4,0-0.9l0.5-1.8c0.1-0.4,0.2-0.7,0.4-0.9c0.2-0.2,0.5-0.2,0.9-0.2h7.6c1.2,0,2.2,0.1,2.7,0.4l0.3-2.8h-12.5
	c-2.4,0-4,1.2-4.6,3.7l-1,4c-0.6,2.5,0.3,3.7,2.7,3.7h6.9c0.4,0,0.7,0.1,0.8,0.2c0.1,0.2,0.1,0.4,0,0.9l-0.6,2.4
	c-0.1,0.4-0.2,0.7-0.4,0.9c-0.2,0.2-0.5,0.2-0.9,0.2h-7.5c-1.2,0-2.1-0.1-2.7-0.4l-0.2,2.8h12.5c2.4,0,4-1.2,4.6-3.7l1.1-4.6
	C-106.1,316.9-107,315.7-109.5,315.7 M413.1,230.4c0.1,0.6,0.2,1.7,0.1,3.2c-0.1,1.5-0.4,3.3-0.9,5.4l-11.1,44.2
	c-0.6,2.1-1.2,3.9-1.8,5.4c-0.7,1.5-1.2,2.6-1.7,3.2c-0.5,0.6-1.1,1.5-2,2.6h30c-0.3-1.1-0.6-2-0.7-2.6c-0.1-0.6-0.2-1.7-0.1-3.2
	c0.1-1.5,0.4-3.3,0.9-5.4l6-24.1c0.3-1.5,0.9-2.6,1.6-3.2s1.9-0.9,3.4-0.9h9c1.5,0,2.5,0.3,3,0.9c0.5,0.6,0.5,1.7,0.2,3.2l-6,24.1
	c-0.6,2.1-1.2,3.9-1.8,5.4c-0.7,1.5-1.2,2.6-1.7,3.2c-0.5,0.6-1.1,1.5-2,2.6h30c-0.3-1.1-0.6-2-0.7-2.6c-0.1-0.6-0.2-1.7-0.1-3.2
	c0.1-1.5,0.4-3.3,0.9-5.4l5-19.9c2.9-11.9-1.1-17.8-12-17.8h-19.2c-1.3,0-2.3,0.3-3,0.8c-0.8,0.5-2.1,1.9-4.1,4h-0.2l5.6-22.5h-27.3
	C412.8,228.9,413,229.7,413.1,230.4 M371,256.2c1.1-0.8,2.6-1.1,4.5-1.1h14.1c5.9,0,9.6,0.9,10.9,2.6l0.8-12.2h-38.3
	c-10.3,0-16.7,5.1-19.2,15.2l-4.7,18.6c-2.5,10.2,1.4,15.2,11.7,15.2H389l4.8-12c-1.4,0.6-2.5,1-3.2,1.2c-0.8,0.3-2,0.5-3.9,0.8
	c-1.8,0.2-4,0.4-6.6,0.4h-12c-1.9,0-3.3-0.4-4-1.1c-0.7-0.8-0.8-2-0.4-3.9l4.9-19.8C369.1,258.3,369.9,257,371,256.2 M336.4,260.3
	c1.3-5.3,1.2-9.1-0.3-11.4c-1.5-2.3-4.9-3.4-10.3-3.4h-37.4c-5.4,0-9.3,1.1-11.9,3.4c-2.6,2.3-4.6,6.1-5.9,11.4l-4.9,19.4
	c-1.3,5.3-1.2,9.1,0.3,11.4c1.5,2.3,4.9,3.4,10.3,3.4h49l4.8-11.7c-2.2,0.8-4,1.4-5.6,1.7c-1.6,0.3-3.6,0.4-6,0.4h-23.7
	c-1.9,0-3.3-0.4-4-1.1c-0.7-0.8-0.8-2-0.4-3.9l1.1-4.6h41.2L336.4,260.3z M295.5,259c0.3-1.5,0.8-2.5,1.5-3.1c0.7-0.6,1.6-0.9,3-0.9
	h10.1c1.3,0,2.2,0.3,2.6,0.9c0.4,0.6,0.4,1.6,0,3l-1.7,6.7h-17.2L295.5,259z M204.4,241.5c1.8-1,3.4-1.7,4.8-2.1
	c1.4-0.4,3.2-0.6,5.3-0.6h11.6L215,283c-1.2,4.7-2.8,8.6-4.9,11.5h29.6c-0.7-2.9-0.5-6.7,0.7-11.5l11.1-44.2h11.6
	c2.2,0,3.9,0.2,5.1,0.6c1.2,0.4,2.4,1.1,3.8,2.1l1.4-13.8h-63.4L204.4,241.5z M172.3,283.2c-0.4,1.3-0.8,2.2-1.4,2.8
	c-0.6,0.5-1.5,0.8-2.7,0.8h-16.1c-1.2,0-1.9-0.3-2.2-0.8c-0.3-0.5-0.3-1.4,0.1-2.8l2.8-11.5c0.3-1.3,0.8-2.2,1.4-2.8
	c0.6-0.5,1.5-0.8,2.7-0.8H176L172.3,283.2z M196,248.7c-1.5-2.1-4.3-3.2-8.5-3.2h-43.4l-3.2,8.3c3.1-0.7,6.1-1,9.1-1h27.3
	c1.7,0,2.4,0.8,2,2.3l-0.7,3.1c-0.4,1.5-1.5,2.3-3.2,2.3h-25.5c-4.4,0-7.9,1.2-10.4,3.6c-2.5,2.4-4.5,6.9-6.1,13.4
	c-1.3,4.4-1.7,7.8-1.3,10.4c0.4,2.5,1.3,4.3,2.7,5.2c1.4,0.9,3.6,1.4,6.6,1.4h22.5c1.9,0,3.4-0.4,4.6-1.1c1.2-0.7,2.4-2.1,3.7-4h0.2
	l-0.4,5.1h16.8c-0.1-2.6,0.5-6.3,1.7-11.1l6.3-24.8C197.7,254.1,197.5,250.8,196,248.7 M35.4,256.5l-6.8,26.9
	c-1.2,4.8-2.4,8.5-3.8,11.1h20.2c-0.1-2.6,0.5-6.3,1.7-11.1l6.7-26.7c0.3-1.3,0.8-2.2,1.4-2.8c0.6-0.5,1.5-0.8,2.7-0.8h13.9
	c1.2,0,1.9,0.3,2.2,0.8c0.3,0.5,0.3,1.4-0.1,2.8l-6.7,26.7c-1.2,4.8-2.4,8.5-3.8,11.1h20.2c-0.1-2.6,0.5-6.3,1.7-11.1l6.7-26.7
	c0.3-1.3,0.8-2.2,1.4-2.8c0.6-0.5,1.5-0.8,2.7-0.8h13.9c1.2,0,1.9,0.3,2.2,0.8c0.3,0.5,0.3,1.4-0.1,2.8l-6.7,26.7
	c-1.2,4.8-2.4,8.5-3.8,11.1h20.2c-0.1-2.6,0.5-6.3,1.7-11.1l6.3-24.8c1.1-4.5,0.9-7.8-0.6-10c-1.5-2.1-4.3-3.2-8.5-3.2H99.8
	c-1.5,0-2.8,0.3-3.8,1c-1,0.7-2.1,2-3.4,4h0.2c-0.1-2.1-0.5-3.4-1.3-4.1c-0.8-0.6-2.4-0.9-5-0.9h-25c-1.5,0-2.7,0.3-3.8,1
	c-1.1,0.8-2.2,2.1-3.1,4h-0.2l0.8-5H37.1C37.2,248.1,36.6,251.7,35.4,256.5 M10.4,240.7h17.5l2.9-11.7H13.3L10.4,240.7z M6.1,256.5
	l-6.8,26.9c-1.2,4.8-2.4,8.5-3.8,11.1h20.2c-0.1-2.6,0.5-6.3,1.7-11.1l9.5-38H7.8C7.9,248.1,7.3,251.7,6.1,256.5 M-12.8,245.5
	c-2.9,0-5,0.4-6.5,1.2c-1.5,0.8-2.6,2.2-3.3,4.1h-0.2l0.6-5.3h-17.4c0.1,2.6-0.5,6.3-1.7,11.1l-6.8,26.9c-1.2,4.8-2.4,8.5-3.8,11.1
	h20.2c-0.1-2.6,0.5-6.3,1.7-11.1l6.5-25.5c0.4-1.7,1.7-2.6,3.8-2.6h6.9c4.7,0,8.7,0.3,12.1,1L2,245.5H-12.8z M-69.3,236.3
	c2,0,3.3,0.4,3.8,1.3c0.5,0.8,0.4,2.5-0.2,4.9l-3.4,13.9c-0.6,2.4-1.3,4-2.2,4.8c-0.9,0.8-2.4,1.2-4.4,1.2h-21.8l6.5-26.1H-69.3z
	 M-70,270.9c5.5,0,9.8-1.1,13-3.3c3.2-2.2,5.3-5.6,6.5-10.4l4-15.9c1.2-4.7,0.7-8.2-1.4-10.4c-2.1-2.2-5.8-3.3-11.3-3.3h-50.7
	c0.2,2.5-0.1,5.5-1,9l-12.2,48.8c-0.8,3.5-2,6.5-3.4,9h22.1c-0.2-2.5,0.1-5.5,0.9-9l3.6-14.6H-70z"/>
</svg>
